<svg preserveAspectRatio="none" overflow="visible" style="display: block;" width="144.222" height="32.3858" viewBox="0 0 144.222 32.3858" fill="none" xmlns="http://www.w3.org/2000/svg">
<g id="Group 13251">
<path id="Vector" d="M114.586 6.3746V12.7509H105.136V32.3842H98.76V12.7509H95.7784V6.3746H102.155V11.4664H104.219V10.6407C104.219 8.30124 106.145 6.42048 108.485 6.42048H114.586V6.3746Z" fill="#D8D8D8"/>
<path id="Vector_2" d="M65.8727 32.3856V0.0457223H72.2948V32.3856H65.8727Z" fill="#D8D8D8"/>
<path id="Vector_3" d="M86.1492 32.3858C84.4519 32.3858 83.1216 31.9729 82.2042 31.1014C81.2867 30.2298 80.7821 28.9454 80.7821 27.1564V12.7525H74.4059V6.37624H80.7821V1.76419e-06H87.2042V6.37624H93.5805V12.7525H87.2042V26.0554H93.9933V32.3858H86.1492Z" fill="#D8D8D8"/>
<path id="Vector_4" d="M63.4413 26.0079V32.3842H57.0651V27.2923H55.0008V28.118C55.0008 30.4575 53.12 32.3842 50.7347 32.3842H4.26611C1.92663 32.3842 0 30.5034 0 28.118V26.0079V6.42048H6.37624V26.0079H54.0833V6.3746H60.4596V26.0079H63.4413Z" fill="#D8D8D8"/>
<path id="Vector_5" d="M141.195 26.0094V10.5964C141.195 8.2569 139.314 6.33027 136.929 6.33027H118.121V12.6606H134.865V16.7891H120.965C118.626 16.7891 116.699 18.6699 116.699 21.0552V28.0737C116.699 30.4132 118.58 32.3398 120.965 32.3398H131.516C133.855 32.3398 135.782 30.4591 135.782 28.0737V27.248H137.846V32.3857H144.222V26.0094H141.195ZM134.819 26.0094H122.112V21.2387H134.819V26.0094Z" fill="#D8D8D8"/>
</g>
</svg>
